# xmcd CD database file
#
# Track frame offsets:
#	150
#	12835
#	27657
#	47465
#	64622
#	85750
#	102800
#	118675
#	138192
#	150617
#
# Disc length: 2129 seconds
#
# Revision: 4
# Processed by: cddbd v1.5.2PL0 Copyright (c) Steve Scherf et al.
# Submitted via: CDex 1.77
#
DISCID=73084f0a
DTITLE=Gladys Knight and The Pips - Greatest Hits
DYEAR=1990
DGENRE=Other
TTITLE0=I Heard It Through The Grapevine
TTITLE1=If I Were Your Woman
TTITLE2=Neither One Of Us (Wants To Be The First To Say Goodbye)
TTITLE3=Friendship Train
TTITLE4=Midnight Train To Georgia
TTITLE5=You're The Best Thing That Ever Happened To Me
TTITLE6=I've Got To Use My Imagination
TTITLE7=On And On
TTITLE8=Letter Full Of Tears
TTITLE9=Every Beat Of My Heart
EXTD=YEAR: 1990
EXTT0=
EXTT1=
EXTT2=
EXTT3=
EXTT4=
EXTT5=
EXTT6=
EXTT7=
EXTT8=
EXTT9=
PLAYORDER=
